<?xml version="1.0" standalone="no"?>
<!DOCTYPE svg PUBLIC "-//W3C//DTD SVG 20010904//EN"
 "http://www.w3.org/TR/2001/REC-SVG-20010904/DTD/svg10.dtd">
<svg version="1.0" xmlns="http://www.w3.org/2000/svg"
 width="700.000000pt" height="700.000000pt" viewBox="0 0 700.000000 700.000000"
 preserveAspectRatio="xMidYMid meet">
<metadata>
Created by potrace 1.14, written by Peter Selinger 2001-2017
</metadata>
<g transform="translate(0.000000,700.000000) scale(0.100000,-0.100000)"
fill="#000000" stroke="none">
<path d="M3279 6996 c-2 -2 -45 -6 -96 -10 -109 -7 -228 -22 -363 -46 -77 -14
-99 -18 -118 -24 -9 -3 -28 -7 -42 -10 -119 -20 -470 -134 -610 -198 -441
-201 -738 -404 -1046 -712 -299 -300 -541 -652 -693 -1006 -18 -41 -39 -89
-47 -107 -69 -153 -184 -554 -209 -733 -3 -25 -8 -52 -10 -60 -2 -8 -7 -41
-10 -73 -4 -32 -8 -67 -10 -77 -13 -66 -20 -240 -20 -470 1 -239 3 -303 20
-475 10 -105 36 -286 50 -355 3 -14 8 -41 11 -60 3 -19 22 -98 41 -175 172
-694 509 -1243 1013 -1651 371 -300 898 -543 1410 -650 109 -23 112 -24 145
-29 52 -9 139 -25 160 -29 11 -2 54 -7 95 -11 41 -4 83 -9 92 -10 137 -26 721
-26 880 0 13 2 46 7 73 10 72 10 86 12 120 19 17 3 44 8 60 11 184 35 493 127
640 191 22 10 42 18 45 19 18 5 79 34 184 85 630 309 1165 817 1510 1434 164
293 300 647 362 941 21 98 54 293 60 350 3 39 8 84 11 100 2 17 5 140 7 275 3
218 -7 413 -28 544 -3 20 -8 53 -11 73 -12 76 -46 241 -71 333 -14 52 -27 100
-28 105 -4 17 -67 209 -76 230 -4 11 -27 67 -51 125 -285 700 -816 1301 -1479
1676 -247 140 -585 279 -797 329 -10 3 -36 9 -58 15 -55 14 -222 50 -265 56
-19 3 -46 7 -60 10 -14 2 -61 9 -105 14 -44 6 -98 13 -120 16 -44 6 -560 15
-566 10z m432 -550 c53 -4 104 -8 115 -10 10 -2 46 -7 79 -11 32 -4 68 -9 80
-11 11 -2 36 -7 55 -10 76 -11 284 -65 387 -100 318 -107 629 -273 883 -471
121 -95 354 -316 425 -404 11 -13 38 -47 61 -74 225 -274 424 -649 531 -1000
27 -91 77 -306 88 -378 3 -27 8 -57 10 -68 2 -10 7 -51 10 -91 4 -40 9 -89 11
-108 5 -48 5 -400 0 -425 -2 -11 -7 -56 -11 -100 -4 -44 -8 -82 -10 -85 -1 -3
-6 -32 -10 -65 -3 -32 -8 -62 -10 -65 -2 -3 -6 -23 -9 -45 -4 -22 -15 -76 -26
-120 -11 -44 -22 -89 -25 -99 -2 -11 -19 -63 -36 -115 -108 -331 -289 -666
-509 -941 -77 -95 -287 -314 -367 -382 -402 -341 -832 -553 -1348 -664 -39 -8
-201 -33 -255 -39 -30 -3 -77 -8 -105 -11 -64 -8 -400 -7 -485 1 -36 3 -87 8
-115 10 -58 5 -141 16 -170 21 -11 2 -38 6 -60 9 -36 5 -254 48 -297 59 -350
90 -651 219 -915 392 -157 104 -250 180 -388 318 -288 290 -487 638 -611 1069
-30 105 -73 297 -88 392 -18 118 -22 155 -31 261 -4 43 -9 95 -11 114 -5 44
-5 479 0 540 26 318 89 598 200 890 37 97 152 336 191 400 166 267 250 375
445 570 138 139 180 176 304 269 344 258 766 445 1193 526 43 8 88 17 100 19
12 3 53 8 90 11 37 4 71 9 74 11 3 1 64 6 135 10 71 4 130 7 131 8 4 3 200 -3
294 -8z"/>
<path d="M3270 5383 c-79 -9 -241 -45 -328 -74 -648 -211 -1142 -749 -1285
-1400 -36 -161 -38 -181 -42 -394 -2 -171 1 -235 20 -385 27 -215 95 -439 190
-625 68 -133 141 -236 255 -359 47 -51 235 -206 250 -206 5 0 15 -7 23 -14 29
-30 201 -118 322 -166 140 -56 374 -113 550 -135 84 -11 436 -13 510 -4 39 5
95 11 125 15 30 3 71 9 90 14 19 5 49 11 65 14 17 2 65 14 107 25 480 130 853
427 1063 846 136 273 194 518 200 845 3 158 -5 256 -30 405 -10 58 -73 275
-90 309 -8 16 -15 33 -15 38 0 26 -168 338 -211 392 -5 6 -36 47 -70 91 -79
103 -271 293 -374 371 -178 133 -379 241 -581 310 -53 18 -276 70 -334 79 -55
7 -361 13 -410 8z"/>
</g>
</svg>
